<svg height="512pt" viewBox="-38 0 512 512" width="512pt" xmlns="http://www.w3.org/2000/svg"><g fill="#263238"><path d="m310 496h-52c-2.207031 0-4-1.792969-4-4s1.792969-4 4-4h52c8.824219 0 16-7.175781 16-16v-120c0-8.824219-7.175781-16-16-16h-184c-8.824219 0-16 7.175781-16 16v120c0 8.824219 7.175781 16 16 16h52c2.207031 0 4 1.792969 4 4s-1.792969 4-4 4h-52c-13.230469 0-24-10.769531-24-24v-120c0-13.230469 10.769531-24 24-24h184c13.230469 0 24 10.769531 24 24v120c0 13.230469-10.769531 24-24 24zm0 0"/><path d="m218 256c-41.945312 0-77.96875-27.800781-88.761719-68.007812-4.910156-.160157-9.621093-1.839844-13.652343-4.886719-1-.769531-1.585938-1.945313-1.585938-3.203125v-31.8125c0-1.257813.585938-2.433594 1.585938-3.195313 4.03125-3.046875 8.742187-4.734375 13.652343-4.886719 10.800781-40.207031 46.816407-68.007812 88.761719-68.007812s77.96875 27.800781 88.761719 68.007812c4.910156.160157 9.613281 1.839844 13.644531 4.878907 1.007812.761719 1.59375 1.945312 1.59375 3.203125v31.832031c0 1.253906-.585938 2.4375-1.59375 3.191406-4.03125 3.039063-8.734375 4.71875-13.636719 4.878907-10.800781 40.207031-46.824219 68.007812-88.769531 68.007812zm-86.273438-76.160156c1.929688 0 4.058594 1.199218 4.480469 3.023437 8.816407 38.351563 42.457031 65.136719 81.792969 65.136719s72.976562-26.785156 81.792969-65.128906c.453125-1.984375 2.167969-3.351563 4.367187-3.078125 1.078125.144531 1.457032.207031 1.839844.207031 2.808594 0 5.535156-.761719 8-2.214844v-27.578125c-2.792969-1.648437-5.984375-2.496093-9.136719-2.09375-1.976562.253907-4.597656-.96875-5.070312-2.984375-8.816407-38.34375-42.449219-65.128906-81.792969-65.128906s-72.976562 26.785156-81.792969 65.128906c-.453125 1.992188-2.382812 3.304688-4.359375 3.078125-1.078125-.144531-1.457031-.207031-1.847656-.207031-2.816406 0-5.542969.761719-8 2.214844v27.5625c2.800781 1.664062 6.097656 2.542968 9.144531 2.101562.191407-.023437.382813-.039062.582031-.039062zm0 0"/><path d="m74 456c-2.207031 0-4-1.792969-4-4v-104.441406c0-25.628906 15.222656-48.71875 38.792969-58.824219l75.640625-32.414063c2-.871093 4.375.0625 5.246094 2.105469.871093 2.023438-.070313 4.375-2.105469 5.246094l-75.636719 32.417969c-20.617188 8.839844-33.9375 29.039062-33.9375 51.46875v104.441406c0 2.207031-1.792969 4-4 4zm0 0"/><path d="m362 456c-2.207031 0-4-1.792969-4-4v-104.441406c0-22.429688-13.320312-42.636719-33.945312-51.46875l-75.628907-32.417969c-2.035156-.871094-2.96875-3.222656-2.105469-5.246094.878907-2.042969 3.230469-2.976562 5.253907-2.105469l75.632812 32.414063c23.5625 10.097656 38.792969 33.1875 38.792969 58.824219v104.441406c0 2.207031-1.792969 4-4 4zm0 0"/><path d="m218 312c-1.335938 0-2.585938-.664062-3.328125-1.785156l-32-48c-.441406-.65625-.671875-1.421875-.671875-2.214844v-14.089844c0-1.324218.65625-2.558594 1.742188-3.300781 1.097656-.746094 2.488281-.914063 3.714843-.417969 19.664063 7.703125 41.414063 7.710938 61.078125 0 1.226563-.488281 2.617188-.335937 3.710938.417969 1.097656.742187 1.753906 1.984375 1.753906 3.300781v14.089844c0 .792969-.230469 1.558594-.671875 2.214844l-32 48c-.742187 1.121094-1.992187 1.785156-3.328125 1.785156zm-28-53.207031 28 42 28-42v-7.199219c-18.167969 5.855469-37.824219 5.855469-56 0zm60 1.207031h.078125zm0 0"/><path d="m108 253.710938h-72c-2.207031 0-4-1.789063-4-4 0-2.207032 1.792969-4 4-4h72c2.207031 0 4 1.792968 4 4 0 2.210937-1.792969 4-4 4zm0 0"/><path d="m20 253.710938h-16c-2.207031 0-4-1.789063-4-4 0-2.207032 1.792969-4 4-4h16c2.207031 0 4 1.792968 4 4 0 2.210937-1.792969 4-4 4zm0 0"/><path d="m400 253.710938h-72c-2.207031 0-4-1.789063-4-4 0-2.207032 1.792969-4 4-4h72c2.207031 0 4 1.792968 4 4 0 2.210937-1.792969 4-4 4zm0 0"/><path d="m432 253.710938h-16c-2.207031 0-4-1.789063-4-4 0-2.207032 1.792969-4 4-4h16c2.207031 0 4 1.792968 4 4 0 2.210937-1.792969 4-4 4zm0 0"/><path d="m242 512c-2.207031 0-4-1.792969-4-4v-36h-40v36c0 2.207031-1.792969 4-4 4s-4-1.792969-4-4v-40c0-2.207031 1.792969-4 4-4h48c2.207031 0 4 1.792969 4 4v40c0 2.207031-1.792969 4-4 4zm0 0"/><path d="m86 60h-32c-2.207031 0-4-1.792969-4-4s1.792969-4 4-4h32c2.207031 0 4 1.792969 4 4s-1.792969 4-4 4zm0 0"/><path d="m70 76c-2.207031 0-4-1.792969-4-4v-32c0-2.207031 1.792969-4 4-4s4 1.792969 4 4v32c0 2.207031-1.792969 4-4 4zm0 0"/><path d="m54 100h-32c-2.207031 0-4-1.792969-4-4s1.792969-4 4-4h32c2.207031 0 4 1.792969 4 4s-1.792969 4-4 4zm0 0"/><path d="m38 116c-2.207031 0-4-1.792969-4-4v-32c0-2.207031 1.792969-4 4-4s4 1.792969 4 4v32c0 2.207031-1.792969 4-4 4zm0 0"/></g><path d="m138 156h-4v-52h24v32c0 11.046875-8.953125 20-20 20zm0 0" fill="#ffd740"/><path d="m138 160h-4c-2.207031 0-4-1.792969-4-4v-52c0-2.207031 1.792969-4 4-4h24c2.207031 0 4 1.792969 4 4v32c0 13.230469-10.761719 24-24 24zm0-8h.078125zm0-44v44c8.824219 0 16-7.175781 16-16v-28zm0 0" fill="#263238"/><path d="m278 103.59375v32.40625c0 11.046875 8.953125 20 20 20h4v-63.480469c-6.304688 6.191407-14.703125 10.136719-24 11.074219zm0 0" fill="#ffd740"/><path d="m302 160h-4c-13.230469 0-24-10.769531-24-24v-32.398438c0-2.058593 1.550781-3.777343 3.601562-3.984374 8.238282-.832032 15.910157-4.359376 21.589844-9.953126 1.160156-1.128906 2.871094-1.464843 4.351563-.832031 1.488281.625 2.457031 2.070313 2.457031 3.6875v63.480469c0 2.207031-1.792969 4-4 4zm-20-52.9375v28.9375c0 8.824219 7.175781 16 16 16v-51.207031c-4.808594 3.078125-10.257812 5.222656-16 6.269531zm0 0" fill="#263238"/><path d="m218 207.984375c-11.273438 0-22.535156-4.289063-31.113281-12.863281-1.558594-1.5625-1.558594-4.097656 0-5.65625 1.5625-1.5625 4.097656-1.5625 5.65625 0 14.03125 14.03125 36.863281 14.03125 50.914062 0 1.558594-1.5625 4.09375-1.5625 5.65625 0 1.558594 1.558594 1.558594 4.09375 0 5.65625-8.578125 8.566406-19.847656 12.863281-31.113281 12.863281zm0 0" fill="#263238"/><path d="m274 104h-140c0-33.136719 26.863281-60 60-60h41.640625c17.367187 0 34.519531-3.769531 50.289063-11.046875l28.070312-12.953125v44c0 22.089844-17.902344 40-40 40zm0 0" fill="#ffd740"/><path d="m274 108h-140c-2.207031 0-4-1.792969-4-4 0-35.289062 28.710938-64 64-64h41.648438c16.671874 0 33.480468-3.6875 48.609374-10.679688l28.0625-12.953124c1.238282-.566407 2.6875-.472657 3.832032.265624 1.152344.734376 1.847656 2.007813 1.847656 3.367188v44c0 24.265625-19.742188 44-44 44zm-135.855469-8h135.855469c19.847656 0 36-16.152344 36-36v-37.753906l-22.382812 10.339844c-16.175782 7.460937-34.144532 11.414062-51.96875 11.414062h-41.648438c-29.527344 0-53.800781 22.984375-55.855469 52zm0 0" fill="#263238"/><path d="m318 136c-2.207031 0-4-1.792969-4-4v-24.585938c0-2.710937-.113281-5.40625-.328125-8.0625-.175781-2.199218 1.457031-4.136718 3.65625-4.320312 2.191406-.136719 4.136719 1.464844 4.3125 3.664062.230469 2.871094.359375 5.785157.359375 8.71875v24.585938c0 2.207031-1.792969 4-4 4zm0 0" fill="#263238"/><path d="m318 132h12c11.046875 0 20 8.953125 20 20v24c0 11.046875-8.953125 20-20 20h-12zm0 0" fill="#40c4ff"/><path d="m330 200h-12c-2.207031 0-4-1.792969-4-4v-64c0-2.207031 1.792969-4 4-4h12c13.230469 0 24 10.769531 24 24v24c0 13.230469-10.769531 24-24 24zm-8-8h8c8.824219 0 16-7.175781 16-16v-24c0-8.824219-7.175781-16-16-16h-8zm0 0" fill="#263238"/><path d="m118 196h-12c-11.046875 0-20-8.953125-20-20v-24c0-11.046875 8.953125-20 20-20h12zm0 0" fill="#40c4ff"/><path d="m118 200h-12c-13.230469 0-24-10.769531-24-24v-24c0-13.230469 10.769531-24 24-24h12c2.207031 0 4 1.792969 4 4v64c0 2.207031-1.792969 4-4 4zm-12-64c-8.824219 0-16 7.175781-16 16v24c0 8.824219 7.175781 16 16 16h8v-56zm0 0" fill="#263238"/><path d="m318 136c-2.207031 0-4-1.792969-4-4v-28c0-1.0625-.070312-2.113281-.144531-3.152344l-.113281-1.777344c-.117188-2.199218 1.585937-4.078124 3.792968-4.191406 2.449219-.199218 4.089844 1.59375 4.191406 3.800782l.105469 1.640624c.089844 1.214844.167969 2.441407.167969 3.679688v28c0 2.207031-1.792969 4-4 4zm0 0" fill="#263238"/><path d="m118 136c-2.207031 0-4-1.792969-4-4v-28c0-57.34375 46.65625-104 104-104 20.566406 0 40.496094 6.023438 57.59375 17.425781 1.832031 1.222657 2.335938 3.703125 1.109375 5.542969-1.222656 1.839844-3.71875 2.328125-5.542969 1.109375-15.792968-10.519531-34.167968-16.078125-53.160156-16.078125-52.9375 0-96 43.0625-96 96v28c0 2.207031-1.792969 4-4 4zm0 0" fill="#263238"/><path d="m186 436c-.832031 0-1.671875-.265625-2.390625-.800781l-32-24c-1.007813-.75-1.601563-1.941407-1.601563-3.199219s.59375-2.449219 1.601563-3.199219l32-24c1.757813-1.328125 4.269531-.976562 5.597656.800781 1.328125 1.765626.96875 4.269532-.800781 5.597657l-27.742188 20.800781 27.726563 20.800781c1.769531 1.328125 2.128906 3.832031.800781 5.597657-.777344 1.050781-1.976562 1.601562-3.191406 1.601562zm0 0" fill="#263238"/><path d="m250 436c-1.207031 0-2.414062-.550781-3.199219-1.601562-1.320312-1.765626-.960937-4.269532.808594-5.597657l27.734375-20.800781-27.742188-20.800781c-1.769531-1.328125-2.128906-3.832031-.808593-5.597657 1.335937-1.777343 3.839843-2.113281 5.597656-.800781l32 24c1.007813.75 1.601563 1.941407 1.601563 3.199219s-.59375 2.449219-1.601563 3.199219l-32 24c-.710937.535156-1.558594.800781-2.390625.800781zm0 0" fill="#263238"/><path d="m202 436c-.761719 0-1.527344-.214844-2.214844-.671875-1.839844-1.222656-2.335937-3.703125-1.113281-5.542969l32-48c1.230469-1.839844 3.726563-2.320312 5.542969-1.113281 1.832031 1.222656 2.335937 3.703125 1.113281 5.542969l-32 48c-.769531 1.160156-2.039063 1.785156-3.328125 1.785156zm0 0" fill="#263238"/></svg>